<?xml version="1.0" encoding="utf-8"?>
<!-- Generator: Adobe Illustrator 22.1.0, SVG Export Plug-In . SVG Version: 6.00 Build 0)  -->
<svg version="1.1" id="Layer_1" xmlns="http://www.w3.org/2000/svg" xmlns:xlink="http://www.w3.org/1999/xlink" x="0px" y="0px"
	 viewBox="0 0 158 158" style="enable-background:new 0 0 158 158;" xml:space="preserve">
<style type="text/css">
	.st0{fill:#FFCC40;}
	.st1{fill:#F15A29;}
	.st2{fill:#FFFFFF;}
	.st3{fill:#BBBBBB;}
</style>
<g>
	<rect width="158" height="158"/>
	<path class="st0" d="M115.8,17.6h-73C29,17.6,17.6,29,17.6,42.9v24.3c0,13.9,11.4,25.3,25.3,25.3h71.5v21.8h-70v-9.9H17.6v11.4
		c0,13.9,11.4,25.3,25.3,25.3h73c13.9,0,25.3-11.4,25.3-25.3V91.5c0-13.9-11.4-25.3-25.3-25.3H44.4V44.4h70v9.9h26.8V42.9
		C141.1,29,129.7,17.6,115.8,17.6z"/>
	<g id="Layer_1_1_">
		<g>
			<circle cx="79" cy="59.5" r="28.8"/>
			<polygon points="57.7,78.9 57.7,115.9 68.3,120.7 103.6,118.8 103.6,86.1 100.3,77.4 			"/>
			<g>
				<circle class="st1" cx="79" cy="59.9" r="26.1"/>
				<path d="M74,86.1c3.3-0.4,6.3-2.4,8.5-4.6c1.5-1.3,2.4-3,3-4.6c0.7-1.5,0.7-3,0.4-4.8c-0.4,0.2-0.9,0.4-1.1,0.7
					c-6.3,3-13.7,4.4-20,3.9c-2.8-0.2-7-1.1-8.1-2.4c-0.2-0.4-0.7-1.1-0.9-1.5c2.2,1.5,5.2,2.4,9.1,2.6c6.1,0.4,13.3-0.9,19.4-3.9
					c0.4-0.2,1.1-0.4,1.5-0.7c-0.9-3.9-4.1-7-9.4-9.6c-5-2.2-11.3-3.7-17-5c-2.2-0.4-4.4-0.9-6.1-1.5c0-0.4,0.2-0.9,0.2-1.1
					c2,0.4,4.1,0.9,6.1,1.5c5.7,1.3,12,2.8,17.2,5c5.7,2.6,8.9,5.9,10,10c2-1.1,3.9-2.4,5.7-3.9c-0.4-1.7-1.1-3.5-2-4.8
					c-2.2-4.4-5.7-9.8-11.5-15c-4.8-4.4-11.3-7.2-16.3-6.8c0.2-0.2,1.1-0.9,1.3-0.9c4.8-0.7,11.1,2.6,16.1,6.8
					c5.2,4.6,9.1,10.2,11.8,15.7c0.7,1.3,1.3,3,1.7,4.6c1.1-1.1,2.4-2.2,3.3-3.3c-1.1-3.5-1.1-7.4-1.3-11.3c-0.2-4.6,0-9.4-2-12.4
					c0.2,0.2,0.4,0.2,0.7,0.4c2,1.5,2.4,8.1,2.4,12c0.2,3.5,0.2,7.2,1.1,10.2c0.7-0.7,1.1-1.3,1.5-2c1.5-2.2,2.8-4.6,3.3-6.8
					c0.2-0.9,0.4-1.7,0.4-2.6c0.2,0.2,0.4,0.7,0.4,1.1c0.2,2.2-1.3,5.9-3,8.5c-0.7,0.9-1.3,2-2.2,2.8c1.5,4.1,3.9,5.9,5.2,6.8
					c-0.2,0.4-0.2,0.9-0.4,1.1c-2.4-1.3-4.4-3.9-5.7-7c-1.1,1.1-2.2,2.2-3.5,3c0.7,2,0.9,3.9,1.1,5.9c0.2,3.3-0.4,7.8-1.7,9.6
					c-0.2,0.2-0.7,0.4-0.9,0.7c1.7-3,1.7-7,1.5-9.8c-0.2-1.7-0.4-3.5-0.9-5.2c-1.7,1.5-3.7,2.6-5.9,3.9c0.7,3.9-0.7,7.6-3.9,10.7
					c-1.7,1.7-5.7,3.9-7.8,4.1C75.1,86.3,74.4,86.1,74,86.1z"/>
				<path class="st2" d="M103.8,92.4l1.5-1.5L97.5,83l4.1-4.1l-1.5-1.5L96,81.5l-4.1-4.1L91.2,78l-0.7-0.7l-4.1,4.1l-4.1-4.1
					L81.6,78L81,77.4l-4.1,4.1l-4.1-4.1L72,78l-0.7-0.7l-4.1,4.1l-4.1-4.1l-1.7,1.3l4.1,4.1l-7.8,7.8l1.5,1.5l7.8-7.8l3.5,3.5
					L59.4,98.9l1.5,1.5L72,89.3l3.5,3.5l-9.1,9.1l1.5,1.5l9.1-9.1l3.5,3.5l-4.1,4.1l1.5,1.5l4.1-4.1l4.1,4.1l1.5-1.5l-4.1-4.1
					l3.5-3.5l9.1,9.1l1.5-1.5l-9.1-9.1l3.5-3.5l11.1,11.1l1.5-1.5l-12-11.1l3.5-3.5L103.8,92.4z M81.4,79.5l3.5,3.5l-3.5,3.5
					L78.1,83L81.4,79.5z M68.3,83l3.5-3.5l3.5,3.5l-3.5,3.5L68.3,83z M76.6,91.3l-3.5-3.5l3.5-3.5l3.5,3.5L76.6,91.3z M81.4,96.1
					l-3.5-3.5l3.5-3.5l3.5,3.5L81.4,96.1z M86.4,91.3l-3.5-3.5l3.5-3.5l3.5,3.5L86.4,91.3z M91.2,86.3L87.7,83l3.5-3.5l3.5,3.5
					L91.2,86.3z"/>
				<g>
					<path class="st3" d="M94.5,115.9H63.8V73.4H52.1v43.1c0,6.1,5,11.1,11.1,11.1h32c6.1,0,11.1-5,11.1-11.1V73.4H94.5
						C94.5,73.4,94.5,115.9,94.5,115.9z"/>
				</g>
			</g>
		</g>
	</g>
</g>
</svg>
