<?xml version="1.0" encoding="utf-8"?>
<!-- Generator: Adobe Illustrator 22.1.0, SVG Export Plug-In . SVG Version: 6.00 Build 0)  -->
<svg version="1.1" xmlns="http://www.w3.org/2000/svg" xmlns:xlink="http://www.w3.org/1999/xlink" x="0px" y="0px"
	 viewBox="0 0 199.4 44.5" style="enable-background:new 0 0 199.4 44.5;" xml:space="preserve">
<style type="text/css">
	.st0{fill:#F15A29;}
	.st1{fill:#FFFFFF;}
	.st2{fill:#FFCC40;}
</style>
<g id="Layer_2">
</g>
<g id="Layer_3">
</g>
<g id="Layer_1">
	<g>
		<circle cx="40.7" cy="13.2" r="13.2"/>
		<polygon points="30.9,22.1 30.9,39.1 35.8,41.3 52,40.4 52,25.4 50.5,21.4 		"/>
		<g>
			<circle class="st0" cx="40.7" cy="13.4" r="12"/>
			<path d="M38.4,25.4c1.5-0.2,2.9-1.1,3.9-2.1c0.7-0.6,1.1-1.4,1.4-2.1c0.3-0.7,0.3-1.4,0.2-2.2c-0.2,0.1-0.4,0.2-0.5,0.3
				c-2.9,1.4-6.3,2-9.2,1.8C32.9,21,31,20.6,30.5,20c-0.1-0.2-0.3-0.5-0.4-0.7c1,0.7,2.4,1.1,4.2,1.2c2.8,0.2,6.1-0.4,8.9-1.8
				c0.2-0.1,0.5-0.2,0.7-0.3c-0.4-1.8-1.9-3.2-4.3-4.4c-2.3-1-5.2-1.7-7.8-2.3c-1-0.2-2-0.4-2.8-0.7c0-0.2,0.1-0.4,0.1-0.5
				c0.9,0.2,1.9,0.4,2.8,0.7c2.6,0.6,5.5,1.3,7.9,2.3c2.6,1.2,4.1,2.7,4.6,4.6c0.9-0.5,1.8-1.1,2.6-1.8c-0.2-0.8-0.5-1.6-0.9-2.2
				c-1-2-2.6-4.5-5.3-6.9c-2.2-2-5.2-3.3-7.5-3.1c0.1-0.1,0.5-0.4,0.6-0.4c2.2-0.3,5.1,1.2,7.4,3.1c2.4,2.1,4.2,4.7,5.4,7.2
				c0.3,0.6,0.6,1.4,0.8,2.1c0.5-0.5,1.1-1,1.5-1.5c-0.5-1.6-0.5-3.4-0.6-5.2c-0.1-2.1,0-4.3-0.9-5.7c0.1,0.1,0.2,0.1,0.3,0.2
				c0.9,0.7,1.1,3.7,1.1,5.5c0.1,1.6,0.1,3.3,0.5,4.7c0.3-0.3,0.5-0.6,0.7-0.9c0.7-1,1.3-2.1,1.5-3.1c0.1-0.4,0.2-0.8,0.2-1.2
				C51.9,9,52,9.2,52,9.4c0.1,1-0.6,2.7-1.4,3.9c-0.3,0.4-0.6,0.9-1,1.3c0.7,1.9,1.8,2.7,2.4,3.1c-0.1,0.2-0.1,0.4-0.2,0.5
				c-1.1-0.6-2-1.8-2.6-3.2c-0.5,0.5-1,1-1.6,1.4c0.3,0.9,0.4,1.8,0.5,2.7c0.1,1.5-0.2,3.6-0.8,4.4c-0.1,0.1-0.3,0.2-0.4,0.3
				c0.8-1.4,0.8-3.2,0.7-4.5c-0.1-0.8-0.2-1.6-0.4-2.4c-0.8,0.7-1.7,1.2-2.7,1.8c0.3,1.8-0.3,3.5-1.8,4.9c-0.8,0.8-2.6,1.8-3.6,1.9
				C38.9,25.5,38.6,25.4,38.4,25.4z"/>
			<path class="st1" d="M52.1,28.3l0.7-0.7L49.2,24l1.9-1.9l-0.7-0.7l-1.9,1.9l-1.9-1.9l-0.3,0.3L46,21.4l-1.9,1.9l-1.9-1.9
				l-0.3,0.3l-0.3-0.3l-1.9,1.9l-1.9-1.9l-0.3,0.3l-0.3-0.3l-1.9,1.9l-1.9-1.9L32.6,22l1.9,1.9l-3.6,3.6l0.7,0.7l3.6-3.6l1.6,1.6
				l-5.1,5.1l0.7,0.7l5.1-5.1l1.6,1.6l-4.2,4.2l0.7,0.7l4.2-4.2l1.6,1.6l-1.9,1.9l0.7,0.7l1.9-1.9l1.9,1.9l0.7-0.7l-1.9-1.9l1.6-1.6
				l4.2,4.2l0.7-0.7l-4.2-4.2l1.6-1.6l5.1,5.1l0.7-0.7L47,26.2l1.6-1.6L52.1,28.3z M41.8,22.4l1.6,1.6l-1.6,1.6L40.3,24L41.8,22.4z
				 M35.8,24l1.6-1.6l1.6,1.6l-1.6,1.6L35.8,24z M39.6,27.8l-1.6-1.6l1.6-1.6l1.6,1.6L39.6,27.8z M41.8,30l-1.6-1.6l1.6-1.6l1.6,1.6
				L41.8,30z M44.1,27.8l-1.6-1.6l1.6-1.6l1.6,1.6L44.1,27.8z M46.3,25.5L44.7,24l1.6-1.6l1.6,1.6L46.3,25.5z"/>
			<g>
				<path class="st2" d="M78.7,19.6H59v24.9h5.4v-8c0,0,0.1,0,0.1,0c0-0.1,0-0.2-0.1-0.2l14.4,0c2.8,0,5.2-2.3,5.2-5.1v-6.4
					C83.9,21.9,81.6,19.6,78.7,19.6z M78.5,30.9H64.3V25h14.1V30.9z M48.9,39.1H34.8V19.6h-5.4v19.8c0,2.8,2.3,5.1,5.1,5.1h14.7
					c2.8,0,5.1-2.3,5.1-5.1V19.6h-5.4V39.1z M19.8,19.6H5.1c-2.8,0-5.1,2.3-5.1,5.1v4.9c0,2.8,2.3,5.1,5.1,5.1h14.4v4.4H5.4v-2H0
					v2.3c0,2.8,2.3,5.1,5.1,5.1h14.7c2.8,0,5.1-2.3,5.1-5.1v-4.9c0-2.8-2.3-5.1-5.1-5.1H5.4V25h14.1v2h5.4v-2.3
					C24.9,21.9,22.6,19.6,19.8,19.6z M157.3,29.6l-8.4-10.1h-5.5v24.9h5.4V27.8l8.6,10.2c2.8-3.3,5.8-6.9,8.6-10.2v16.7h5.4V19.6
					h-5.6L157.3,29.6z M106.9,19.6H87.2v24.9h5.4v-8c0,0,0.1,0,0.1,0c0-0.1,0-0.2-0.1-0.2l7.1,0l6.9,8.2h5.5v-1.8
					c-1.7-2.1-3.6-4.3-5.4-6.4h0.2c2.8,0,5.2-2.3,5.2-5.1v-6.4C112.1,21.9,109.8,19.6,106.9,19.6z M106.6,30.9H92.5V25h14.1V30.9z
					 M199.4,25v-5.4h-23v24.9h23v-5.4h-17.6v-4.4h14.1v-5.4h-14.1V25H199.4z M116.7,44.5h23v-5.4h-17.6v-4.4h14.1v-5.4h-14.1V25
					h17.6v-5.4h-23V44.5z"/>
			</g>
		</g>
	</g>
</g>
</svg>
